<?xml version="1.0" encoding="UTF-8"?>
<svg version="1.1" xmlns="http://www.w3.org/2000/svg" width="512" height="512">
<path d="M0 0 C1.49734177 0.00273422 1.49734177 0.00273422 3.02493286 0.00552368 C17.53284138 0.0501813 31.7388309 0.40677635 46 3.3125 C46.9163623 3.49474121 47.83272461 3.67698242 48.77685547 3.86474609 C55.22973313 5.17636005 61.62284326 6.67347628 68 8.3125 C69.13211914 8.60229736 69.13211914 8.60229736 70.28710938 8.89794922 C87.35200854 13.3642134 103.61104155 20.16516832 119.20214844 28.36865234 C120.91147347 29.26602477 122.63127907 30.1433496 124.3515625 31.01953125 C153.91848787 46.37850586 181.89489623 69.73976175 202 96.3125 C202.93681326 97.5096523 203.87436758 98.70622491 204.8125 99.90234375 C212.32586187 109.5864207 218.88539793 119.69508457 225 130.3125 C225.5566333 131.27687988 225.5566333 131.27687988 226.12451172 132.26074219 C240.04118582 156.65502293 248.98186437 183.76137938 254 211.3125 C254.16371094 212.14813477 254.32742188 212.98376953 254.49609375 213.84472656 C259.76810464 241.45742821 259.55644657 273.77208544 254 301.3125 C253.82307617 302.21436035 253.64615234 303.1162207 253.46386719 304.04541016 C252.16498713 310.51849895 250.65342874 316.92138488 249 323.3125 C248.79036621 324.13250488 248.58073242 324.95250977 248.36474609 325.79736328 C235.07375455 376.61826783 202.83776532 425.38532976 161 457.3125 C160.04738281 458.08207031 159.09476562 458.85164063 158.11328125 459.64453125 C118.04622077 491.56747153 64.69413551 512.09340525 13.2265625 512.55078125 C12.31321136 512.56052979 11.39986023 512.57027832 10.45883179 512.58032227 C-9.7193123 512.75133254 -29.17644724 512.51002603 -49 508.3125 C-49.92522461 508.12526367 -50.85044922 507.93802734 -51.80371094 507.74511719 C-94.33841793 499.00262683 -134.48975754 479.05470896 -167 450.3125 C-167.81210938 449.61125 -168.62421875 448.91 -169.4609375 448.1875 C-182.22403079 436.99329193 -193.96819555 425.01160878 -204 411.3125 C-204.46825195 410.68859375 -204.93650391 410.0646875 -205.41894531 409.421875 C-238.35774201 365.47418094 -255.52016915 312.00694972 -255.3125 257.25 C-255.31067719 256.25426971 -255.30885437 255.25853943 -255.30697632 254.2326355 C-255.26227459 239.73951915 -254.88818769 225.56070639 -252 211.3125 C-251.73461426 209.95390869 -251.73461426 209.95390869 -251.46386719 208.56787109 C-239.60207597 149.04380481 -207.8655018 92.31942814 -159 55.3125 C-157.82613786 54.38758753 -156.65301321 53.46173862 -155.48046875 52.53515625 C-132.88248956 34.8941346 -107.07254444 21.60317971 -80 12.3125 C-79.29133789 12.06806152 -78.58267578 11.82362305 -77.85253906 11.57177734 C-64.59115531 7.10139738 -50.77966542 4.60674326 -37 2.3125 C-35.88786133 2.12196045 -34.77572266 1.9314209 -33.62988281 1.73510742 C-22.42793414 0.0117898 -11.31175049 -0.04271235 0 0 Z " fill="#5155AA" transform="translate(255,-0.3125)"/>
<path d="M0 0 C1.49734177 0.00273422 1.49734177 0.00273422 3.02493286 0.00552368 C17.53284138 0.0501813 31.7388309 0.40677635 46 3.3125 C46.9163623 3.49474121 47.83272461 3.67698242 48.77685547 3.86474609 C55.22973313 5.17636005 61.62284326 6.67347628 68 8.3125 C69.13211914 8.60229736 69.13211914 8.60229736 70.28710938 8.89794922 C87.35200854 13.3642134 103.61104155 20.16516832 119.20214844 28.36865234 C120.91147347 29.26602477 122.63127907 30.1433496 124.3515625 31.01953125 C153.91848787 46.37850586 181.89489623 69.73976175 202 96.3125 C202.93681326 97.5096523 203.87436758 98.70622491 204.8125 99.90234375 C217.85019819 116.70681488 231.6112364 136.81958069 238 157.3125 C237.67 157.9725 237.34 158.6325 237 159.3125 C236.14019531 158.61125 235.28039062 157.91 234.39453125 157.1875 C207.20687425 135.25257753 171.60746193 119.33626216 136.14453125 119.109375 C135.40920166 119.10231537 134.67387207 119.09525574 133.91625977 119.08798218 C80.35936282 118.69090394 38.36610594 139.69477838 0.1484375 177.01171875 C-6.54893481 183.63475414 -13.18083105 190.25800744 -19.33129883 197.39648438 C-22.09606907 200.57101501 -24.98919516 203.62333386 -27.875 206.6875 C-35.10338745 214.39989267 -42.31516625 222.11818766 -49 230.3125 C-52.4000755 227.74199618 -55.05649416 225.20700112 -57.625 221.8125 C-74.54911879 200.21197997 -96.71439941 181.3481752 -123 172.3125 C-122.17757812 172.71339844 -121.35515625 173.11429688 -120.5078125 173.52734375 C-112.59157585 177.55859128 -106.36924707 182.02705881 -100 188.3125 C-99.0925 189.116875 -98.185 189.92125 -97.25 190.75 C-88.37939775 200.85263034 -84.2096966 213.09771314 -83 226.3125 C-83.07347656 227.43527344 -83.14695313 228.55804688 -83.22265625 229.71484375 C-83.39208098 233.43784365 -83.39199564 235.83474885 -82 239.3125 C-77.40871381 243.42723994 -71.59591052 245.87099225 -66 248.3125 C-72.02005102 262.51449881 -90.46487496 276.89786236 -102.421875 286.28515625 C-104.13052116 287.62877346 -105.80887686 289.01189512 -107.453125 290.43359375 C-135.15498949 314.26909372 -168.47839839 326.60309586 -205 324.3125 C-210.53612031 323.60113653 -215.71104324 322.09305687 -221 320.3125 C-222.11246094 319.961875 -223.22492188 319.61125 -224.37109375 319.25 C-231.39000804 316.82329254 -237.34447074 313.45865246 -243.42041016 309.2590332 C-246.87414747 306.83460311 -246.87414747 306.83460311 -251 306.3125 C-257.31146621 275.98472984 -258.16546493 241.72839615 -252 211.3125 C-251.73461426 209.95390869 -251.73461426 209.95390869 -251.46386719 208.56787109 C-239.60207597 149.04380481 -207.8655018 92.31942814 -159 55.3125 C-157.82613786 54.38758753 -156.65301321 53.46173862 -155.48046875 52.53515625 C-132.88248956 34.8941346 -107.07254444 21.60317971 -80 12.3125 C-79.29133789 12.06806152 -78.58267578 11.82362305 -77.85253906 11.57177734 C-64.59115531 7.10139738 -50.77966542 4.60674326 -37 2.3125 C-35.88786133 2.12196045 -34.77572266 1.9314209 -33.62988281 1.73510742 C-22.42793414 0.0117898 -11.31175049 -0.04271235 0 0 Z " fill="#F1F1F1" transform="translate(255,-0.3125)"/>
<path d="M0 0 C1.54296875 2.0546875 1.54296875 2.0546875 3.1875 4.875 C14.1208456 22.65298138 29.2385611 37.157185 47 48 C47.64404785 48.39767578 48.2880957 48.79535156 48.95166016 49.20507812 C63.59319049 58.13939219 79.14791705 64.98448237 95.94795227 68.5612793 C97.83775174 68.96531188 99.72423584 69.38476997 101.61035156 69.80566406 C111.99491368 71.96331802 121.97335362 72.51908602 132.5625 72.4375 C133.3905011 72.43479095 134.2185022 72.43208191 135.07159424 72.42929077 C148.68683741 72.36195995 161.7606878 71.39205115 175 68 C175.72155273 67.81808105 176.44310547 67.63616211 177.18652344 67.44873047 C202.8743792 60.72324835 226.4316672 47.99854951 245.84375 29.9453125 C247.82070422 28.16175598 249.84345961 26.55859056 252 25 C238.96796756 67.92904803 207.38417374 108.99768451 172 136 C171.04738281 136.76957031 170.09476562 137.53914062 169.11328125 138.33203125 C129.04622077 170.25497153 75.69413551 190.78090525 24.2265625 191.23828125 C23.31321136 191.24802979 22.39986023 191.25777832 21.45883179 191.26782227 C1.2806877 191.43883254 -18.17644724 191.19752603 -38 187 C-38.92522461 186.81276367 -39.85044922 186.62552734 -40.80371094 186.43261719 C-83.33841793 177.69012683 -123.48975754 157.74220896 -156 129 C-156.81210938 128.29875 -157.62421875 127.5975 -158.4609375 126.875 C-171.22403079 115.68079193 -182.96819555 103.69910878 -193 90 C-193.46825195 89.37609375 -193.93650391 88.7521875 -194.41894531 88.109375 C-209.47668742 68.01899193 -223.70521723 44.50589229 -230 20 C-229.113125 20.78375 -228.22625 21.5675 -227.3125 22.375 C-217.43430725 30.78534885 -207.43846866 37.88903729 -196 44 C-195.28457031 44.39832031 -194.56914062 44.79664063 -193.83203125 45.20703125 C-165.59752326 60.31761015 -131.85003902 62.06442478 -101 56 C-100.30213379 55.86609863 -99.60426758 55.73219727 -98.88525391 55.59423828 C-63.02205949 48.44931305 -32.19154558 24.36742092 -4.8828125 1.29296875 C-3 0 -3 0 0 0 Z " fill="#F1F1F1" transform="translate(244,321)"/>
<path d="M0 0 C0 0.66 0 1.32 0 2 C0.763125 2.20625 1.52625 2.4125 2.3125 2.625 C12.13859214 6.28896656 19.51964768 11.73725793 27 19 C28.36125 20.2065625 28.36125 20.2065625 29.75 21.4375 C38.62060225 31.54013034 42.7903034 43.78521314 44 57 C43.92652344 58.12277344 43.85304687 59.24554688 43.77734375 60.40234375 C43.60791902 64.12534365 43.60800436 66.52224885 45 70 C49.59128619 74.11473994 55.40408948 76.55849225 61 79 C54.97994898 93.20199881 36.53512504 107.58536236 24.578125 116.97265625 C22.86947884 118.31627346 21.19112314 119.69939512 19.546875 121.12109375 C-8.15498949 144.95659372 -41.47839839 157.29059586 -78 155 C-83.53612031 154.28863653 -88.71104324 152.78055687 -94 151 C-95.11246094 150.649375 -96.22492188 150.29875 -97.37109375 149.9375 C-104.39000804 147.51079254 -110.34447074 144.14615246 -116.42041016 139.9465332 C-119.87414747 137.52210311 -119.87414747 137.52210311 -124 137 C-130.17765045 107.3152395 -131.05531641 74.0491544 -125.38378906 44.19433594 C-125.00491539 42.02810405 -124.76354974 39.88382551 -124.5546875 37.6953125 C-123.44691808 28.81557348 -120.34055589 23.89520821 -113.44921875 18.49609375 C-112.30625141 17.6547836 -111.15639751 16.82275265 -110 16 C-109.42717285 15.59023926 -108.8543457 15.18047852 -108.26416016 14.75830078 C-75.79110981 -8.00827944 -37.29693581 -12.98144232 0 0 Z " fill="#69C0F0" transform="translate(128,169)"/>
<path d="M0 0 C20.56339501 2.98308438 40.33990417 20.38436543 55 34 C55.78890625 34.72960937 56.5778125 35.45921875 57.390625 36.2109375 C61.97238585 40.63035249 65.97336212 45.47712879 69.94140625 50.44921875 C71.61080194 52.5177489 73.33350523 54.47727719 75.125 56.4375 C77 59 77 59 76.78735352 60.95092773 C75.91483288 63.22164577 74.91090253 64.55325475 73.27734375 66.34765625 C72.47006836 67.25547852 72.47006836 67.25547852 71.64648438 68.18164062 C70.50345072 69.4396308 69.36022027 70.69744218 68.21679688 71.95507812 C67.41145508 72.8609668 67.41145508 72.8609668 66.58984375 73.78515625 C66.09347412 74.33051025 65.59710449 74.87586426 65.08569336 75.43774414 C63.71466142 77.09350974 63.71466142 77.09350974 64 80 C66.33965801 81.77145535 68.65842052 83.36104497 71.125 84.9375 C79.32202183 90.35616672 86.72519516 96.40689016 94 103 C94.52005615 103.46253174 95.0401123 103.92506348 95.57592773 104.40161133 C97.22455122 106.25203786 97.81748161 107.75383923 98.578125 110.10546875 C98.98369629 111.32254517 98.98369629 111.32254517 99.39746094 112.56420898 C99.81946777 113.86273804 99.81946777 113.86273804 100.25 115.1875 C102.50844118 121.8880689 104.89857015 128.46499978 107.75 134.9375 C108.03133789 135.58033936 108.31267578 136.22317871 108.60253906 136.88549805 C109.82924843 139.62439354 111.08979436 142.13369824 112.765625 144.62890625 C114 147 114 147 114.12109375 149.4375 C112.39502681 153.38279586 109.42381986 155.41123837 106.0625 158 C105.34884277 158.56323975 104.63518555 159.12647949 103.89990234 159.70678711 C95.78292579 166.05594506 87.4506388 172.10458318 79 178 C78.24928223 178.52513184 77.49856445 179.05026367 76.72509766 179.59130859 C41.11494615 204.34592199 1.54007769 216.82739275 -42.03515625 209.046875 C-54.4387923 206.57255539 -66.75909936 202.84321207 -78 197 C-79.03125 196.48824219 -80.0625 195.97648438 -81.125 195.44921875 C-93.41101326 189.14684167 -111.70092189 178.89448342 -116.66674805 165.15527344 C-117.34149595 163.03036271 -117.96171622 160.89697055 -118.5625 158.75 C-118.77865967 157.99219238 -118.99481934 157.23438477 -119.2175293 156.45361328 C-121.33581896 148.94895374 -123.33461493 141.86345097 -123 134 C-122.36835937 134.42410156 -121.73671875 134.84820312 -121.0859375 135.28515625 C-108.43440719 143.57974745 -96.67466898 148.86265698 -82 152 C-81.37464355 152.1757959 -80.74928711 152.3515918 -80.10498047 152.53271484 C-53.89767383 158.35048159 -23.30945493 147.94357536 -1.2734375 134.09765625 C6.83385992 128.84024739 14.63485822 123.26095785 22 117 C23.50626953 115.76830078 23.50626953 115.76830078 25.04296875 114.51171875 C32.38207568 108.44673244 39.24714473 101.95993045 46 95.25 C46.80107178 94.45811279 47.60214355 93.66622559 48.42749023 92.8503418 C53.07196709 88.18145373 57.22524428 83.39938098 61 78 C58.33402693 76.92079833 55.69414922 75.90066721 52.95703125 75.01171875 C49.14587393 73.40677175 46.82294921 72.05924989 44 69 C42.15316626 63.07922919 42.38997881 56.66363404 42.16601562 50.515625 C41.48258232 40.15960028 36.46662882 29.21106695 29.75 21.375 C28.8425 20.59125 27.935 19.8075 27 19 C26.360625 18.34773438 25.72125 17.69546875 25.0625 17.0234375 C17.69255874 9.77798849 9.18123881 5.50541069 0 1 C0 0.67 0 0.34 0 0 Z " fill="#219CDC" transform="translate(128,170)"/>
<path d="M0 0 C7.26593453 3.5133634 11.58820483 16.72367995 14.18554688 23.86279297 C22.06160637 46.56850146 23.2843189 72.87826161 15.8984375 95.91796875 C15.67881348 96.63581543 15.45918945 97.35366211 15.23291016 98.09326172 C8.72497857 119.10010952 -2.7191915 136.29870191 -19.1015625 150.91796875 C-19.64409668 151.41651367 -20.18663086 151.91505859 -20.74560547 152.42871094 C-24.93800785 156.15111305 -29.34471436 159.69358516 -35.13720703 160.03955078 C-41.02555868 159.62678423 -46.52294668 157.73392442 -52.1015625 155.91796875 C-54.22619756 155.27743409 -56.35121725 154.63817422 -58.4765625 154 C-73.9481334 149.21072688 -88.59408914 143.08817429 -103.1015625 135.91796875 C-104.25591797 135.35408447 -104.25591797 135.35408447 -105.43359375 134.77880859 C-121.85976022 126.68781173 -137.19272911 116.50386174 -152.1015625 105.91796875 C-148.39485609 102.11408277 -144.52299349 98.60592648 -140.4765625 95.16796875 C-139.8582959 94.64066162 -139.2400293 94.11335449 -138.60302734 93.57006836 C-133.16326095 88.94381026 -127.64817057 84.41541683 -122.1015625 79.91796875 C-120.88758183 78.92241008 -119.67407026 77.92627921 -118.4609375 76.9296875 C-109.57671806 69.64639777 -100.55621895 62.57008503 -91.38916016 55.64648438 C-89.81172697 54.45457115 -88.23598007 53.26042404 -86.66162109 52.06445312 C-75.67095668 43.71538584 -64.60853962 35.54314079 -53.1015625 27.91796875 C-52.40869141 27.45358398 -51.71582031 26.98919922 -51.00195312 26.51074219 C-10.62296579 -0.41465108 -10.62296579 -0.41465108 0 0 Z " fill="#F1F1F1" transform="translate(412.1015625,201.08203125)"/>
<path d="M0 0 C1.27101563 0.33386719 2.54203125 0.66773437 3.8515625 1.01171875 C6.94904312 1.90478798 9.96504706 2.91467873 13 4 C14.81177734 4.60908203 14.81177734 4.60908203 16.66015625 5.23046875 C33.22257148 10.95924228 48.0957131 19.39648477 62 30 C62.67417969 30.44029541 63.34835937 30.88059082 64.04296875 31.33422852 C69.46798718 34.99848441 71.66143502 38.24651805 73.625 44.4375 C73.90512939 45.26096924 74.18525879 46.08443848 74.47387695 46.93286133 C80.43426669 64.92493713 84.37722587 83.24281441 87 102 C87.10675049 102.76014404 87.21350098 103.52028809 87.32348633 104.3034668 C88.07253614 110.2307591 88.11649214 116.09429155 88.0625 122.0625 C88.05798828 123.02349609 88.05347656 123.98449219 88.04882812 124.97460938 C88.03717706 127.31647422 88.02082025 129.65820181 88 132 C84.86969895 130.46943843 82.02942823 128.74142878 79.125 126.8125 C56.61485681 112.42519144 34.16434359 106.83057159 7.97265625 112.34375 C6.99167969 112.5603125 6.01070312 112.776875 5 113 C4.79431396 112.42668945 4.58862793 111.85337891 4.37670898 111.26269531 C0.39251611 100.2478987 -3.54175216 89.82642494 -10 80 C-10.68449219 78.86304688 -10.68449219 78.86304688 -11.3828125 77.703125 C-15.71480922 70.72242171 -21.3567808 64.91667916 -27 59 C-27.62003906 58.32710937 -28.24007812 57.65421875 -28.87890625 56.9609375 C-45.25884499 39.67319493 -69.78296627 29.39662033 -93.38623047 28.71679688 C-119.52124876 28.38407863 -142.66462737 37.7712797 -164.109375 52.1171875 C-166.37440931 53.59252066 -168.55187013 54.87100807 -171 56 C-147.5429587 26.67869838 -104.65823421 -0.21610916 -67.1484375 -4.5234375 C-44.47569883 -6.55648567 -22.05118185 -5.96013979 0 0 Z " fill="#572F94" transform="translate(424,123)"/>
<path d="M0 0 C-6.02005102 14.20199881 -24.46487496 28.58536236 -36.421875 37.97265625 C-38.13052116 39.31627346 -39.80887686 40.69939512 -41.453125 42.12109375 C-69.05842023 65.87350268 -102.55616555 78.46387591 -139 76 C-145.09816348 75.12013179 -151.46860129 73.76569936 -157 71 C-157.81640625 68.9609375 -157.81640625 68.9609375 -158.5625 66.375 C-158.81128906 65.53710938 -159.06007812 64.69921875 -159.31640625 63.8359375 C-163.80165907 45.2285458 -160.80822049 27.3668077 -151.265625 10.95751953 C-147.61292338 5.30795133 -142.82136982 0.64483607 -138 -4 C-137.24847656 -4.75925781 -136.49695313 -5.51851562 -135.72265625 -6.30078125 C-97.81669361 -42.65379942 -38.91542859 -24.69632968 0 0 Z " fill="#F1F1F1" transform="translate(189,248)"/>
<path d="M0 0 C0.71260986 0.40226807 1.42521973 0.80453613 2.15942383 1.21899414 C5.29454734 3.18022627 7.58537875 4.62514083 8.68310547 8.26513672 C8.90463685 11.03241958 8.84907536 13.66600468 8.6875 16.4375 C8.65551514 17.4473999 8.62353027 18.4572998 8.59057617 19.49780273 C7.76868195 39.47246373 3.84252076 58.66548351 -1 78 C-1.66 78 -2.32 78 -3 78 C-3.08507812 78.58136719 -3.17015625 79.16273438 -3.2578125 79.76171875 C-6.61750487 89.89384364 -23.06526886 96.66618454 -32 101.1875 C-56.20156821 113.12900762 -81.7780249 116.57086384 -108.5 114.125 C-109.47453125 114.04636719 -110.4490625 113.96773437 -111.453125 113.88671875 C-112.38640625 113.80292969 -113.3196875 113.71914063 -114.28125 113.6328125 C-115.11720703 113.55949707 -115.95316406 113.48618164 -116.81445312 113.41064453 C-119 113 -119 113 -122 111 C-119.14038639 107.95589519 -116.22580257 105.37155847 -112.875 102.875 C-90.73315373 85.76372245 -78.1242671 60.45354996 -73.38598633 33.14331055 C-72.70941547 27.63360163 -72.70431816 22.1300422 -72.73925781 16.5847168 C-72.74996791 14.56854057 -72.73930588 12.55325858 -72.7265625 10.53710938 C-72.74239161 2.49196338 -73.37371976 -5.11772717 -75 -13 C-48.1351331 -20.90766122 -23.18423672 -15.01455331 0 0 Z " fill="#5C55A9" transform="translate(504,249)"/>
<path d="M0 0 C6.04011643 2.55543387 10.44546371 7.44546371 15 12 C21.9419266 18.41644212 29.12459104 24.74972736 37 30 C37.680625 30.556875 38.36125 31.11375 39.0625 31.6875 C69.25079894 55.45275661 106.69146031 72.93309871 143.8125 82.25 C144.64716797 82.46696533 145.48183594 82.68393066 146.34179688 82.9074707 C151.59758687 84.11996974 154.94394475 83.91711574 160 82 C159.67 82.66 159.34 83.32 159 84 C166.95987511 85.88909478 174.83761312 86.61797048 183 87 C183.88171875 87.04253906 184.7634375 87.08507812 185.671875 87.12890625 C218.34217193 87.88986037 250.7590299 77.15264329 275 55 C276.04006462 53.6976777 277.05697052 52.3742173 278 51 C277.26114226 59.12743515 275.7063982 68.19673383 269.3125 73.75 C267.87945479 74.83921935 266.44186219 75.92247933 265 77 C263.63837577 78.26283973 262.28452387 79.5340981 260.9375 80.8125 C239.76723597 99.5581355 212.46560984 110.67899152 185 116 C184.04649658 116.18618896 183.09299316 116.37237793 182.1105957 116.56420898 C172.68076692 118.21688991 163.35871155 118.44225226 153.8125 118.4375 C152.56401779 118.43810425 152.56401779 118.43810425 151.29031372 118.4387207 C111.41078566 118.32807274 72.82763519 104.05708519 44 76 C42.96409032 75.03716978 41.92759621 74.0749681 40.890625 73.11328125 C32.61412612 65.29278445 25.87724431 56.76399906 20 47 C20 46.34 20 45.68 20 45 C19.34 45 18.68 45 18 45 C17.649375 43.96875 17.29875 42.9375 16.9375 41.875 C15.51063737 38.03447255 13.7201513 34.4986664 11.8125 30.875 C0 8.1470298 0 8.1470298 0 0 Z " fill="#595EAF" transform="translate(224,276)"/>
<path d="M0 0 C6.04011643 2.55543387 10.44546371 7.44546371 15 12 C21.9419266 18.41644212 29.12459104 24.74972736 37 30 C37.680625 30.556875 38.36125 31.11375 39.0625 31.6875 C69.74936097 55.84524161 108.6899612 74.64130591 146.86914062 82.5559082 C148.924279 82.98544206 150.96453668 83.48523583 153 84 C153.33 84.66 153.66 85.32 154 86 C121.58517156 99.85364037 90.49333842 97.33973209 58 85 C56.73800781 84.63390625 55.47601563 84.2678125 54.17578125 83.890625 C48.56805089 81.77180649 44.79492541 77.53729232 40.6875 73.3125 C39.44552856 72.05385132 39.44552856 72.05385132 38.1784668 70.76977539 C20 51.92704415 20 51.92704415 20 45 C19.34 45 18.68 45 18 45 C17.649375 43.96875 17.29875 42.9375 16.9375 41.875 C15.51063737 38.03447255 13.7201513 34.4986664 11.8125 30.875 C0 8.1470298 0 8.1470298 0 0 Z " fill="#557CC4" transform="translate(224,276)"/>
<path d="M0 0 C7.12066476 6.45606938 8.32869212 12.52550702 9.05078125 21.859375 C9.15933172 25.54842083 9.14666511 29.23167473 9.11328125 32.921875 C9.10876953 33.88287109 9.10425781 34.84386719 9.09960938 35.83398438 C9.08795831 38.17584922 9.0716015 40.51757681 9.05078125 42.859375 C5.9204802 41.32881343 3.08020948 39.60080378 0.17578125 37.671875 C-22.33436194 23.28456644 -44.78487516 17.68994659 -70.9765625 23.203125 C-71.95753906 23.4196875 -72.93851562 23.63625 -73.94921875 23.859375 C-74.15490479 23.28606445 -74.36059082 22.71275391 -74.57250977 22.12207031 C-80.01791978 7.05023457 -80.01791978 7.05023457 -87.69921875 -6.9609375 C-88.94921875 -9.140625 -88.94921875 -9.140625 -88.94921875 -12.140625 C-56.94086492 -22.66281911 -26.88781711 -22.47617182 0 0 Z " fill="#4E2E8B" transform="translate(502.94921875,212.140625)"/>
<path d="M0 0 C0.91265625 0.61875 0.91265625 0.61875 1.84375 1.25 C6.15640692 4.09127985 10.21782595 6.754386 15.01171875 8.68359375 C25.09826379 12.83590194 29.02466871 16.86981607 33.22265625 26.89453125 C33.65215576 27.9302124 33.65215576 27.9302124 34.09033203 28.98681641 C43.60184213 50.03671235 64.14264038 63.15455463 84 73 C84 73.33 84 73.66 84 74 C77.53763881 74.32050926 72.3330348 73.25656157 66.1875 71.3125 C65.30312256 71.03849365 64.41874512 70.7644873 63.50756836 70.48217773 C57.08415829 68.44692684 50.98577043 66.11150567 45 63 C43.453125 62.23236328 43.453125 62.23236328 41.875 61.44921875 C29.58898674 55.14684167 11.29907811 44.89448342 6.33325195 31.15527344 C5.65850405 29.03036271 5.03828378 26.89697055 4.4375 24.75 C4.22134033 23.99219238 4.00518066 23.23438477 3.7824707 22.45361328 C1.66418104 14.94895374 -0.33461493 7.86345097 0 0 Z " fill="#0498D9" transform="translate(5,304)"/>
<path d="M0 0 C20.56339501 2.98308438 40.33990417 20.38436543 55 34 C55.78890625 34.72960937 56.5778125 35.45921875 57.390625 36.2109375 C61.97238585 40.63035249 65.97336212 45.47712879 69.94140625 50.44921875 C71.61080194 52.5177489 73.33350523 54.47727719 75.125 56.4375 C77 59 77 59 76.80102539 60.93066406 C75.8804038 63.3089599 74.75011793 64.76685748 73.05859375 66.671875 C72.18364258 67.66767578 72.18364258 67.66767578 71.29101562 68.68359375 C70.67935547 69.36550781 70.06769531 70.04742187 69.4375 70.75 C68.82197266 71.44738281 68.20644531 72.14476562 67.57226562 72.86328125 C66.05438016 74.58119814 64.53021188 76.29306657 63 78 C56.15627817 76.90500451 48.49828481 74.60082131 44 69 C41.95563535 63.11228148 42.2734566 56.66372744 42.13378906 50.49951172 C41.5816873 40.18488066 36.42137821 29.15827458 29.75 21.375 C28.8425 20.59125 27.935 19.8075 27 19 C26.360625 18.34773438 25.72125 17.69546875 25.0625 17.0234375 C17.69255874 9.77798849 9.18123881 5.50541069 0 1 C0 0.67 0 0.34 0 0 Z " fill="#0498D9" transform="translate(128,170)"/>
<path d="M0 0 C6.02452765 2.83735818 10.34593455 7.34593455 15 12 C20.45826411 17.04508874 26.11609393 21.7380159 32.03125 26.23828125 C34 28 34 28 35 31 C32.92375562 32.82121437 30.83975198 34.6319006 28.75 36.4375 C28.16347656 36.95376953 27.57695312 37.47003906 26.97265625 38.00195312 C26.11220703 38.74155273 26.11220703 38.74155273 25.234375 39.49609375 C24.44885254 40.17949829 24.44885254 40.17949829 23.64746094 40.87670898 C21.78984852 42.14328793 20.19459981 42.58068958 18 43 C10.77041703 29.03626234 4.75542772 15.02155697 0 0 Z " fill="#3A6EB7" transform="translate(224,276)"/>
<path d="M0 0 C7.00126924 8.80940483 10.80067781 19.69477295 14.5 30.1875 C14.86246826 31.20368408 15.22493652 32.21986816 15.59838867 33.2668457 C15.92685791 34.22421631 16.25532715 35.18158691 16.59375 36.16796875 C16.88958984 37.02672607 17.18542969 37.8854834 17.49023438 38.77026367 C18 41 18 41 17 44 C16.48695313 43.50113281 15.97390625 43.00226563 15.4453125 42.48828125 C6.41198283 34.01763373 -3.70789648 26.86140235 -14 20 C-13.40873123 16.81497428 -12.45568906 15.02968148 -10.3125 12.6171875 C-9.77882812 12.00746094 -9.24515625 11.39773437 -8.6953125 10.76953125 C-8.13585937 10.14433594 -7.57640625 9.51914063 -7 8.875 C-5.89413514 7.62389483 -4.78988986 6.37135568 -3.6875 5.1171875 C-3.19636719 4.56659668 -2.70523438 4.01600586 -2.19921875 3.44873047 C-0.90253824 1.99327197 -0.90253824 1.99327197 0 0 Z " fill="#4068B5" transform="translate(205,230)"/>
<path d="M0 0 C0.66 0.33 1.32 0.66 2 1 C-1.3810038 5.13621084 -4.66590534 8.81316569 -9 12 C-9.66 11.67 -10.32 11.34 -11 11 C-7.37 7.37 -3.74 3.74 0 0 Z " fill="#65409C" transform="translate(264,167)"/>
<path d="M0 0 C0 3 0 3 -1.8125 5.1875 C-4 7 -4 7 -7 7 C-7 6.34 -7 5.68 -7 5 C-5.03277992 3.61876037 -3.03131672 2.28511874 -1 1 C-0.67 0.67 -0.34 0.34 0 0 Z " fill="#5E88C7" transform="translate(249,314)"/>
</svg>
